<?xml version="1.0" standalone="no"?><svg xmlns="http://www.w3.org/2000/svg" viewBox="0 0 1440 320"><path fill="#ffd700" fill-opacity="1" d="M0,160L0,128L46.5,128L46.5,0L92.9,0L92.9,192L139.4,192L139.4,160L185.8,160L185.8,128L232.3,128L232.3,128L278.7,128L278.7,288L325.2,288L325.2,64L371.6,64L371.6,288L418.1,288L418.1,160L464.5,160L464.5,32L511,32L511,256L557.4,256L557.4,0L603.9,0L603.9,288L650.3,288L650.3,160L696.8,160L696.8,192L743.2,192L743.2,224L789.7,224L789.7,288L836.1,288L836.1,96L882.6,96L882.6,64L929,64L929,288L975.5,288L975.5,160L1021.9,160L1021.9,320L1068.4,320L1068.4,32L1114.8,32L1114.8,256L1161.3,256L1161.3,288L1207.7,288L1207.7,32L1254.2,32L1254.2,0L1300.6,0L1300.6,32L1347.1,32L1347.1,96L1393.5,96L1393.5,128L1440,128L1440,0L1393.5,0L1393.5,0L1347.1,0L1347.1,0L1300.6,0L1300.6,0L1254.2,0L1254.2,0L1207.7,0L1207.7,0L1161.3,0L1161.3,0L1114.8,0L1114.8,0L1068.4,0L1068.4,0L1021.9,0L1021.9,0L975.5,0L975.5,0L929,0L929,0L882.6,0L882.6,0L836.1,0L836.1,0L789.7,0L789.7,0L743.2,0L743.2,0L696.8,0L696.8,0L650.3,0L650.3,0L603.9,0L603.9,0L557.4,0L557.4,0L511,0L511,0L464.5,0L464.5,0L418.1,0L418.1,0L371.6,0L371.6,0L325.2,0L325.2,0L278.7,0L278.7,0L232.3,0L232.3,0L185.8,0L185.8,0L139.4,0L139.4,0L92.9,0L92.9,0L46.5,0L46.5,0L0,0L0,0Z"></path></svg>